HIERARCHY
ROOT joint_Root
{
	OFFSET 0.0 0.0 0.0
	CHANNELS 6 Xposition Yposition Zposition Zrotation Xrotation Yrotation 
	JOINT Hips
	{
		OFFSET 4.5925 91.4895 -427.239
		CHANNELS 6 Xposition Yposition Zposition Zrotation Xrotation Yrotation 
		JOINT Spine
		{
			OFFSET 15.7357 0.0 0.0
			CHANNELS 6 Xposition Yposition Zposition Zrotation Xrotation Yrotation 
			JOINT Chest
			{
				OFFSET 8.98455 -0.406207 0.0
				CHANNELS 6 Xposition Yposition Zposition Zrotation Xrotation Yrotation 
				JOINT Neck
				{
					OFFSET 16.3773 0.0 0.0
					CHANNELS 6 Xposition Yposition Zposition Zrotation Xrotation Yrotation 
					JOINT Head
					{
						OFFSET 6.45672 0.0 0.0
						CHANNELS 6 Xposition Yposition Zposition Zrotation Xrotation Yrotation 
						End Site
						{
							OFFSET 0.0 0.0 0.0
						}
					}
				}
				JOINT Shoulder_L
				{
					OFFSET 12.9942 -0.242716 4.98039
					CHANNELS 6 Xposition Yposition Zposition Zrotation Xrotation Yrotation 
					JOINT UpperArm_L
					{
						OFFSET 5.34809 0.0 0.0
						CHANNELS 6 Xposition Yposition Zposition Zrotation Xrotation Yrotation 
						JOINT LowerArm_L
						{
							OFFSET 24.3286 1.87007e-05 0.0
							CHANNELS 6 Xposition Yposition Zposition Zrotation Xrotation Yrotation 
							JOINT Hand_L
							{
								OFFSET 22.2916 0.0 0.0
								CHANNELS 6 Xposition Yposition Zposition Zrotation Xrotation Yrotation 
								End Site
								{
									OFFSET 0.0 0.0 0.0
								}
							}
						}
					}
				}
				JOINT Shoulder_R
				{
					OFFSET 12.9945 -0.242716 -4.98039
					CHANNELS 6 Xposition Yposition Zposition Zrotation Xrotation Yrotation 
					JOINT UpperArm_R
					{
						OFFSET -5.34813 0.0 0.0
						CHANNELS 6 Xposition Yposition Zposition Zrotation Xrotation Yrotation 
						JOINT LowerArm_R
						{
							OFFSET -24.3289 0.000322201 0.0
							CHANNELS 6 Xposition Yposition Zposition Zrotation Xrotation Yrotation 
							JOINT Hand_R
							{
								OFFSET -22.2915 -0.000108084 0.0
								CHANNELS 6 Xposition Yposition Zposition Zrotation Xrotation Yrotation 
								End Site
								{
									OFFSET 0.0 0.0 0.0
								}
							}
						}
					}
				}
			}
		}
		JOINT UpperLeg_L
		{
			OFFSET -2.19248 -6.46944 0.0
			CHANNELS 6 Xposition Yposition Zposition Zrotation Xrotation Yrotation 
			JOINT LowerLeg_L
			{
				OFFSET 39.0811 0.0 -1.23785e-05
				CHANNELS 6 Xposition Yposition Zposition Zrotation Xrotation Yrotation 
				JOINT Foot_L
				{
					OFFSET 40.9854 0.0 -1.26872e-05
					CHANNELS 6 Xposition Yposition Zposition Zrotation Xrotation Yrotation 
					JOINT Toes_L
					{
						OFFSET 11.7543 0.0 0.0
						CHANNELS 6 Xposition Yposition Zposition Zrotation Xrotation Yrotation 
						End Site
						{
							OFFSET 0.0 0.0 0.0
						}
					}
				}
			}
		}
		JOINT UpperLeg_R
		{
			OFFSET -2.19251 6.46944 0.0
			CHANNELS 6 Xposition Yposition Zposition Zrotation Xrotation Yrotation 
			JOINT LowerLeg_R
			{
				OFFSET -39.0811 -0.00228153 -0.0401928
				CHANNELS 6 Xposition Yposition Zposition Zrotation Xrotation Yrotation 
				JOINT Foot_R
				{
					OFFSET -40.9854 0.0 0.0
					CHANNELS 6 Xposition Yposition Zposition Zrotation Xrotation Yrotation 
					JOINT Toes_R
					{
						OFFSET -11.7543 0.0 0.0
						CHANNELS 6 Xposition Yposition Zposition Zrotation Xrotation Yrotation 
						End Site
						{
							OFFSET 0.0 0.0 0.0
						}
					}
				}
			}
		}
	}
}
MOTION
Frames:	9
Frame Time:	0.0333333
0.000000 0.000000 0.000000 0.000000 0.000000 -0.000000 0.319439 83.364400 2.515150 89.833400 -7.943710 17.250000 15.735700 0.000005 -0.000001 86.484100 77.884400 -86.838100 8.984550 -0.406207 -0.000000 16.418900 -1.489600 -0.494032 16.377300 -0.000001 -0.000001 -4.616390 -1.648930 1.457480 6.456720 -0.000001 -0.000000 -6.953110 0.525649 -0.135347 12.994200 -0.242716 4.980390 -91.403600 4.320780 -71.983000 5.348090 -0.000007 -0.000001 -74.260100 16.354800 1.639180 24.328600 0.000019 0.000005 5.278810 17.237300 -17.316700 22.291600 -0.000001 0.000005 12.534800 5.160030 3.693550 12.994500 -0.242716 -4.980390 88.155300 9.826490 -79.312300 -5.348130 -0.000001 -0.000004 -68.641300 4.199450 -2.227210 -24.328900 0.000322 -0.000009 -1.817790 -11.853800 -8.771700 -22.291500 -0.000108 -0.000004 9.317060 5.142270 4.151120 -2.192480 -6.469440 -0.000000 -170.991000 -17.409900 -1.957170 39.081100 -0.000007 -0.000012 -0.424898 0.274584 57.129000 40.985400 -0.000006 -0.000013 2.044200 5.831080 -86.753700 11.754300 -0.000000 0.000003 -0.000356 -0.003001 -16.688700 -2.192510 6.469440 -0.000001 173.106000 11.919500 174.822000 -39.081100 -0.002282 -0.040193 0.052008 -0.029672 58.698800 -40.985400 0.000008 0.000006 5.150700 6.386850 -84.823000 -11.754300 -0.000006 -0.000006 -0.850430 -1.041910 -17.478200
0.000000 0.000000 0.000000 0.000000 0.000000 -0.000000 0.144766 85.728300 2.879130 89.352400 -6.861200 15.484700 15.735700 0.000005 -0.000001 86.402400 79.520900 -86.593000 8.984550 -0.406207 -0.000000 13.151300 -1.310500 -0.230099 16.377300 -0.000001 -0.000001 -2.418450 -2.021620 1.514330 6.456720 -0.000001 -0.000000 -5.156250 -0.260862 -0.464420 12.994200 -0.242716 4.980390 -91.085900 3.160270 -71.021900 5.348090 -0.000007 -0.000001 -69.167500 10.308300 -2.359660 24.328600 0.000019 0.000005 6.461180 20.459400 -17.951800 22.291600 -0.000001 0.000005 12.532800 5.141860 4.130610 12.994500 -0.242716 -4.980390 88.367800 8.101640 -78.567600 -5.348130 -0.000001 -0.000004 -64.818500 -3.575910 -5.150010 -24.328900 0.000322 -0.000009 -0.983524 -8.246700 -6.817870 -22.291500 -0.000108 -0.000004 7.767800 5.069980 5.791870 -2.192480 -6.469440 -0.000000 -171.102000 -16.928600 -0.184926 39.081100 -0.000007 -0.000012 -0.354461 0.299464 49.808200 40.985400 -0.000006 -0.000013 1.826490 6.585530 -83.071300 11.754300 -0.000000 0.000003 -0.000273 -0.002403 -16.667400 -2.192510 6.469440 -0.000001 173.456000 13.811200 177.225000 -39.081100 -0.002282 -0.040193 0.040735 -0.030077 51.262500 -40.985400 0.000008 0.000006 5.148620 7.319560 -81.175000 -11.754300 -0.000006 -0.000006 -0.760893 -0.928631 -17.782100
0.000000 0.000000 0.000000 0.000000 0.000000 -0.000000 0.020435 88.077100 2.862270 89.005200 -5.698410 12.276200 15.735700 0.000005 -0.000001 87.465600 82.031100 -87.532000 8.984550 -0.406207 -0.000000 8.156140 -0.701874 -0.082717 16.377300 -0.000001 -0.000001 1.890590 -2.554890 1.537830 6.456720 -0.000001 -0.000000 -2.454460 -1.423190 -0.357928 12.994200 -0.242716 4.980390 -90.560500 1.549610 -70.108100 5.348090 -0.000007 -0.000001 -62.431400 -1.715970 -10.830400 24.328600 0.000019 0.000005 6.537660 19.840600 -18.659800 22.291600 -0.000001 0.000005 13.717800 5.108280 4.923010 12.994500 -0.242716 -4.980390 88.593200 6.310700 -77.402900 -5.348130 -0.000001 -0.000004 -58.358100 -14.276100 -10.600400 -24.328900 0.000322 -0.000009 -1.373960 -10.049500 -7.815530 -22.291500 -0.000108 -0.000004 8.498820 5.021790 6.851720 -2.192480 -6.469440 -0.000000 -172.568000 -15.009000 -0.033376 39.081100 -0.000007 -0.000012 -0.286169 0.322126 41.617800 40.985400 -0.000006 -0.000013 0.910593 5.586720 -78.591700 11.754300 -0.000000 0.000003 -0.000230 -0.002080 -16.655700 -2.192510 6.469440 -0.000001 174.266000 15.947400 178.048000 -39.081100 -0.002282 -0.040193 0.029310 -0.027763 43.166100 -40.985400 0.000008 0.000006 4.998360 8.269330 -76.596800 -11.754300 -0.000006 -0.000006 -0.755638 -0.917610 -18.250900
0.000000 0.000000 0.000000 0.000000 0.000000 -0.000000 -0.055243 89.787000 2.643840 88.559200 -4.689590 8.735430 15.735700 0.000005 -0.000001 87.268400 84.599000 -87.208000 8.984550 -0.406207 -0.000000 3.024140 -0.516778 0.134155 16.377300 -0.000001 -0.000001 6.892130 -2.600210 1.761460 6.456720 -0.000001 -0.000000 0.106450 -1.942490 -0.429304 12.994200 -0.242716 4.980390 -90.167700 0.453618 -69.709800 5.348090 -0.000007 -0.000001 -55.616700 -14.313500 -22.219400 24.328600 0.000019 0.000005 7.511600 18.388200 -22.685600 22.291600 -0.000001 0.000005 14.782800 5.160640 3.700040 12.994500 -0.242716 -4.980390 88.830300 4.868440 -76.471500 -5.348130 -0.000001 -0.000004 -52.000100 -25.567300 -20.414300 -24.328900 0.000322 -0.000009 -3.083050 -14.586800 -12.054700 -22.291500 -0.000108 -0.000004 8.829330 5.061660 5.981550 -2.192480 -6.469440 -0.000000 -173.984000 -12.374900 -0.904728 39.081100 -0.000007 -0.000012 -0.244049 0.351394 34.781000 40.985400 -0.000006 -0.000013 -0.017088 3.606240 -74.757300 11.754300 -0.000000 0.000003 -0.000199 -0.001841 -16.647000 -2.192510 6.469440 -0.000001 175.542000 17.907500 177.773000 -39.081100 -0.002282 -0.040193 0.018327 -0.020549 36.198500 -40.985400 0.000008 0.000006 4.646930 9.223550 -72.587700 -11.754300 -0.000006 -0.000006 -0.814672 -0.984789 -18.516000
0.000000 0.000000 0.000000 0.000000 0.000000 -0.000000 -0.081720 90.588300 2.526210 88.316100 -4.157950 7.002710 15.735700 0.000005 -0.000001 84.241700 85.890100 -84.028200 8.984550 -0.406207 -0.000000 0.413892 -0.838146 0.429722 16.377300 -0.000001 -0.000001 9.028190 -2.758430 1.458540 6.456720 -0.000001 -0.000000 2.320330 -1.833860 -0.691967 12.994200 -0.242716 4.980390 -89.887500 -0.315913 -70.366500 5.348090 -0.000007 -0.000001 -48.162000 -26.450500 -33.972900 24.328600 0.000019 0.000005 7.945110 13.768700 -30.425900 22.291600 -0.000001 0.000005 18.755000 5.293860 0.316887 12.994500 -0.242716 -4.980390 89.226400 3.229340 -76.524900 -5.348130 -0.000001 -0.000004 -49.140300 -36.162200 -34.937400 -24.328900 0.000322 -0.000009 -8.586840 -20.930200 -22.868400 -22.291500 -0.000108 -0.000004 11.110700 5.342840 -1.023960 -2.192480 -6.469440 -0.000000 -174.396000 -11.373900 -1.097170 39.081100 -0.000007 -0.000012 -0.212422 0.352209 31.095100 40.985400 -0.000006 -0.000013 -0.274009 3.052950 -72.724500 11.754300 -0.000000 0.000003 -0.000201 -0.001863 -16.647800 -2.192510 6.469440 -0.000001 175.988000 19.762000 178.539000 -39.081100 -0.002282 -0.040193 0.010628 -0.011975 31.468900 -40.985400 0.000008 0.000006 4.850930 10.625300 -71.357200 -11.754300 -0.000006 -0.000006 -0.206841 -0.271408 -18.005400
0.000000 0.000000 0.000000 0.000000 0.000000 -0.000000 -0.118255 90.831100 2.403950 88.267200 -4.320920 6.401400 15.735700 0.000005 -0.000001 81.149300 86.136300 -80.890900 8.984550 -0.406207 -0.000000 -0.127842 -1.206430 0.515105 16.377300 -0.000001 -0.000001 8.667280 -2.541160 1.519130 6.456720 -0.000001 -0.000000 2.493280 -1.498410 -1.184780 12.994200 -0.242716 4.980390 -89.198500 -2.355690 -71.201400 5.348090 -0.000007 -0.000001 -41.556100 -40.124800 -43.759700 24.328600 0.000019 0.000005 6.524400 7.510440 -41.199200 22.291600 -0.000001 0.000005 23.808700 5.407810 -3.161510 12.994500 -0.242716 -4.980390 89.919300 0.355216 -77.229900 -5.348130 -0.000001 -0.000004 -48.287900 -44.423100 -49.620800 -24.328900 0.000322 -0.000009 -15.665200 -19.260500 -40.412200 -22.291500 -0.000108 -0.000004 17.760600 5.570440 -9.500100 -2.192480 -6.469440 -0.000000 -174.117000 -12.717400 -1.133000 39.081100 -0.000007 -0.000012 -0.195741 0.340324 29.906100 40.985400 -0.000006 -0.000013 -0.040729 4.251780 -72.017100 11.754300 -0.000000 0.000003 -0.000192 -0.001790 -16.645200 -2.192510 6.469440 -0.000001 175.974000 20.925700 179.494000 -39.081100 -0.002282 -0.040193 0.002809 0.000903 28.748600 -40.985400 0.000008 0.000006 5.156250 11.957400 -71.802000 -11.754300 -0.000006 -0.000006 -0.002125 -0.030270 -17.804000
0.000000 0.000000 0.000000 0.000000 0.000000 -0.000000 -0.055980 91.045800 2.087250 88.362000 -4.797260 5.525080 15.735700 0.000005 -0.000001 81.852400 86.066600 -81.522500 8.984550 -0.406207 -0.000000 0.024814 -1.136890 0.659737 16.377300 -0.000001 -0.000001 6.513160 -2.226440 1.398950 6.456720 -0.000001 -0.000000 1.934710 -1.156120 -1.308810 12.994200 -0.242716 4.980390 -87.986000 -5.494030 -69.843500 5.348090 -0.000007 -0.000001 -36.260000 -51.207500 -51.617400 24.328600 0.000019 0.000005 8.366080 6.413680 -52.795400 22.291600 -0.000001 0.000005 31.905800 5.413270 -3.375370 12.994500 -0.242716 -4.980390 90.803100 -3.362440 -76.579700 -5.348130 -0.000001 -0.000004 -44.119600 -52.238200 -60.751200 -24.328900 0.000322 -0.000009 -14.137700 -10.257600 -54.756000 -22.291500 -0.000108 -0.000004 25.260000 5.640260 -13.850100 -2.192480 -6.469440 -0.000000 -174.440000 -13.240300 -1.700850 39.081100 -0.000007 -0.000012 -0.182884 0.331673 28.872500 40.985400 -0.000006 -0.000013 -0.023881 4.242810 -71.288600 11.754300 -0.000000 0.000003 -0.000196 -0.001823 -16.646400 -2.192510 6.469440 -0.000001 175.944000 20.994200 178.941000 -39.081100 -0.002282 -0.040193 -0.097506 0.194310 27.421600 -40.985400 0.000008 0.000006 3.134600 13.091000 -70.403100 -11.754300 -0.000006 -0.000006 -0.002073 -0.029623 -17.777700
0.000000 0.000000 0.000000 0.000000 0.000000 -0.000000 0.031151 91.468600 1.676660 88.484700 -4.518880 3.408360 15.735700 0.000005 -0.000001 82.209300 86.696200 -81.897500 8.984550 -0.406207 -0.000000 -1.216820 -0.919953 0.613564 16.377300 -0.000001 -0.000001 5.551160 -2.480260 1.363190 6.456720 -0.000001 -0.000000 2.693370 -1.033700 -0.848506 12.994200 -0.242716 4.980390 -86.153600 -9.363920 -67.554400 5.348090 -0.000007 -0.000001 -32.068500 -57.842800 -56.771400 24.328600 0.000019 0.000005 9.641740 5.971490 -58.521500 22.291600 -0.000001 0.000005 32.179400 5.433490 -4.058050 12.994500 -0.242716 -4.980390 92.364100 -7.778970 -73.055700 -5.348130 -0.000001 -0.000004 -36.976000 -57.198500 -66.115400 -24.328900 0.000322 -0.000009 -9.897110 -6.337080 -57.666500 -22.291500 -0.000108 -0.000004 25.449500 5.649800 -14.972300 -2.192480 -6.469440 -0.000000 -175.306000 -12.753600 -3.222490 39.081100 -0.000007 -0.000012 -0.159702 0.317629 26.693100 40.985400 -0.000006 -0.000013 -0.087581 3.862760 -69.836600 11.754300 -0.000000 0.000003 -0.000204 -0.001885 -16.648600 -2.192510 6.469440 -0.000001 176.790000 22.124000 177.294000 -39.081100 -0.002282 -0.040193 -0.016446 0.041356 25.535500 -40.985400 0.000008 0.000006 4.623940 13.525800 -69.549100 -11.754300 -0.000006 -0.000006 -0.001988 -0.028568 -17.734800
0.000000 0.000000 0.000000 0.000000 0.000000 -0.000000 -0.059730 91.811600 1.668590 88.638100 -3.414010 1.487510 15.735700 0.000005 -0.000001 78.346300 87.561100 -78.149000 8.984550 -0.406207 -0.000000 -2.987250 -1.003400 0.368565 16.377300 -0.000001 -0.000001 6.542510 -2.946010 2.129530 6.456720 -0.000001 -0.000000 3.111290 -1.401660 -0.924677 12.994200 -0.242716 4.980390 -85.107400 -11.059700 -65.953500 5.348090 -0.000007 -0.000001 -23.207800 -60.485000 -59.180100 24.328600 0.000019 0.000005 11.431100 8.940060 -52.474200 22.291600 -0.000001 0.000005 28.547100 5.407950 -3.183550 12.994500 -0.242716 -4.980390 94.273700 -11.318000 -69.159900 -5.348130 -0.000001 -0.000004 -31.645800 -58.998900 -68.815400 -24.328900 0.000322 -0.000009 -4.375880 -3.499850 -51.361100 -22.291500 -0.000108 -0.000004 23.019600 5.628990 -13.210200 -2.192480 -6.469440 -0.000000 -175.726000 -13.160000 -4.289350 39.081100 -0.000007 -0.000012 -0.139504 0.305719 24.528000 40.985400 -0.000006 -0.000013 0.089229 5.220090 -68.608600 11.754300 -0.000000 0.000003 -0.000193 -0.001797 -16.645400 -2.192510 6.469440 -0.000001 177.481000 23.636600 175.958000 -39.081100 -0.002282 -0.040193 0.003836 -0.001167 24.090100 -40.985400 0.000008 0.000006 5.091660 13.754900 -68.426900 -11.754300 -0.000006 -0.000006 -0.002178 -0.030925 -17.830600
